<?xml version="1.0" encoding="utf-8"?>
<!-- Generator: Adobe Illustrator 26.2.1, SVG Export Plug-In . SVG Version: 6.00 Build 0)  -->
<svg version="1.1" id="Capa_1" xmlns="http://www.w3.org/2000/svg" xmlns:xlink="http://www.w3.org/1999/xlink" x="0px" y="0px"
	 viewBox="0 0 662.69 213.12" style="enable-background:new 0 0 662.69 213.12;" xml:space="preserve">
<style type="text/css">
	.st0{fill:#FCC128;}
</style>
<g>
	<path class="st0" d="M346.3,164.28c7.74,0,12.01,1.66,15.27,4.43c4.86,4.11,5.77,9.98,5.77,13.93c0,2.99-0.64,9.39-5.44,13.45
		c-4.65,3.95-10.41,3.9-15.64,3.9h-15.69v-1.17H332c4.54,0,4.54-1.17,4.54-8.01v-17.08c0-7.15-0.1-7.58-4.8-7.58h-1.01v-1.23
		C335.58,164.6,340.22,164.28,346.3,164.28z M341.66,189.26c0,9.29-0.05,9.5,5.55,9.5c2.51,0,6.41-0.1,9.34-2.4
		c4.27-3.31,5.07-9.13,5.07-13.34c0-3.37-0.53-8.33-3.31-12.28c-3.68-5.23-9.55-5.18-12.33-5.18c-1.81,0-3.15,0.05-4.32,0.11V189.26
		z"/>
	<path class="st0" d="M380.35,192.68c0,4.65-0.37,6.14,2.94,6.14h0.8v1.17h-11.53v-1.17h0.91c2.4,0,3.15-0.32,3.15-4.06v-8.54
		c0-5.87-0.32-5.87-4.06-5.87v-1.17c1.6-0.05,5.02-0.74,7.26-1.39h0.53V192.68z M377.95,164.12c1.49,0,2.67,1.28,2.67,2.78
		c0,1.5-1.17,2.78-2.67,2.78c-1.49,0-2.72-1.28-2.72-2.78C375.23,165.4,376.41,164.12,377.95,164.12z"/>
	<path class="st0" d="M408.32,178c1.87,0,2.61,1.28,2.61,2.19c0,0.91-0.59,1.71-1.55,1.71c-0.74,0-1.23-0.59-1.49-1.07
		c-0.38-0.59-0.59-1.01-1.17-1.01c-0.64,0-1.39,0.48-2.24,1.39c1.28,1.97,1.39,3.63,1.39,4.54c0,2.13-0.8,4.06-2.4,5.66
		c-1.39,1.39-3.58,2.3-7.42,2.45c-1.5,0.05-5.5,0.21-5.5,2.24c0,1.66,2.35,1.76,7.26,2.03c3.84,0.21,10.84,0.59,10.84,7.37
		c0,4-3.15,7.63-10.84,7.63c-6.83,0-10.78-2.88-10.78-6.67c0-1.5,0.8-3.58,3.2-3.58c0.38,0,0.53,0.05,0.8,0.16
		c-0.64,0.69-1.66,1.87-1.66,3.73c0,4.01,4.7,5.28,8.59,5.28c5.71,0,8.06-2.67,8.06-5.44c0-4.54-4.7-4.75-8.7-4.91
		c-4.21-0.16-8.91-0.59-8.91-4.27c0-2.61,2.24-3.84,4.75-4.27c-3.73-2.19-4.96-5.12-4.96-7.58c0-4.37,3.9-7.79,8.7-7.79
		c2.72,0,5.34,1.07,6.94,2.73C405.55,178.58,407.09,178,408.32,178z M396.96,192.68c5.07,0,4.86-6.3,4.86-6.94
		c0-1.17,0-6.67-4.91-6.67c-4.8,0-4.8,5.71-4.8,7.1C392.1,188.57,392.74,192.68,396.96,192.68z"/>
	<path class="st0" d="M420.86,192.68c0,4.65-0.37,6.14,2.94,6.14h0.8v1.17h-11.53v-1.17h0.91c2.4,0,3.15-0.32,3.15-4.06v-8.54
		c0-5.87-0.32-5.87-4.06-5.87v-1.17c1.6-0.05,5.02-0.74,7.26-1.39h0.53V192.68z M418.46,164.12c1.49,0,2.67,1.28,2.67,2.78
		c0,1.5-1.17,2.78-2.67,2.78s-2.72-1.28-2.72-2.78C415.74,165.4,416.92,164.12,418.46,164.12z"/>
	<path class="st0" d="M434.26,179.81v12.92c0,2.94,0,6.3,3.2,6.3c1.81,0,2.78-1.44,3.26-2.13l0.8,0.48
		c-1.66,3.47-5.18,3.47-5.55,3.47c-1.97,0-3.84-1.07-4.64-2.61c-0.69-1.28-0.8-2.4-0.8-6.3v-12.11h-3.09v-1.17
		c2.35-0.11,5.18-1.66,5.98-6.67h0.85v6.67h6.46v1.17H434.26z"/>
	<path class="st0" d="M467.19,196.09c-0.1,2.4-1.44,4.43-4.37,4.43c-3.47,0-3.9-2.46-4.16-3.74c-2.62,1.87-5.66,3.74-8.59,3.74
		c-2.4,0-5.28-1.44-5.28-4.54c0-3.04,2.45-5.61,9.82-8.6l4.06-1.65v-1.07c0-3.15-0.48-5.71-4.86-5.71c-1.87,0-4,0.43-4.38,2.3
		c-0.21,1.12-0.48,2.94-2.24,2.94c-0.8,0-1.6-0.53-1.6-1.49c0-1.44,2.14-4.91,8.7-4.91c8.12,0,8.12,4.86,8.12,7.48v8.65
		c0,3.09,0,4.7,1.65,4.7c0.64,0,1.81-0.32,2.19-2.51H467.19z M458.65,186.96l-2.83,1.17c-2.77,1.12-6.72,3.26-6.72,6.83
		c0,1.87,1.01,3.68,3.09,3.68c2.4,0,5.55-2.51,6.46-3.26V186.96z"/>
	<path class="st0" d="M477.07,192.68c0,5.98,0,6.14,3.79,6.14v1.17h-11.42v-1.17h0.69c3.15,0,3.2-0.59,3.2-6.14v-21.14
		c0-3.95-0.05-5.13-3.58-5.13v-1.17c2.3-0.05,4.91-0.43,6.94-1.12h0.38V192.68z"/>
	<path class="st0" d="M506.53,186.96l-2.08,5.18c-0.32,0.86-0.86,2.62-0.86,3.37c0,1.71,1.23,3.31,3.85,3.31v1.17h-10.52v-1.17
		c1.49-0.05,3.68-0.96,5.07-4.21l12.71-30.48h1.01l12.97,30.69c0.8,1.87,1.92,4,4.75,4v1.17H519.5v-1.17c2.51,0,4.37,0.05,4.37-1.92
		c0-0.59-0.32-1.34-0.69-2.19l-3.2-7.74H506.53z M519.5,185.79l-6.25-15.05l-6.19,15.05H519.5z"/>
	<path class="st0" d="M557.07,178c1.87,0,2.61,1.28,2.61,2.19c0,0.91-0.59,1.71-1.55,1.71c-0.74,0-1.23-0.59-1.49-1.07
		c-0.38-0.59-0.59-1.01-1.17-1.01c-0.64,0-1.39,0.48-2.24,1.39c1.28,1.97,1.39,3.63,1.39,4.54c0,2.13-0.8,4.06-2.4,5.66
		c-1.39,1.39-3.58,2.3-7.42,2.45c-1.5,0.05-5.5,0.21-5.5,2.24c0,1.66,2.35,1.76,7.26,2.03c3.84,0.21,10.84,0.59,10.84,7.37
		c0,4-3.15,7.63-10.84,7.63c-6.83,0-10.78-2.88-10.78-6.67c0-1.5,0.8-3.58,3.2-3.58c0.38,0,0.53,0.05,0.8,0.16
		c-0.64,0.69-1.66,1.87-1.66,3.73c0,4.01,4.7,5.28,8.59,5.28c5.71,0,8.06-2.67,8.06-5.44c0-4.54-4.7-4.75-8.7-4.91
		c-4.21-0.16-8.91-0.59-8.91-4.27c0-2.61,2.24-3.84,4.75-4.27c-3.73-2.19-4.96-5.12-4.96-7.58c0-4.37,3.9-7.79,8.7-7.79
		c2.72,0,5.34,1.07,6.94,2.73C554.29,178.58,555.84,178,557.07,178z M545.7,192.68c5.07,0,4.86-6.3,4.86-6.94
		c0-1.17,0-6.67-4.91-6.67c-4.8,0-4.8,5.71-4.8,7.1C540.84,188.57,541.48,192.68,545.7,192.68z"/>
	<path class="st0" d="M566.78,185.9c-0.05,0.75-0.11,1.6-0.11,2.51c0,2.72,0.11,11.05,6.99,11.05c1.17,0,4.8-0.1,6.78-4.27h1.23
		c-0.16,0.75-2.24,5.66-8.7,5.66c-4.7,0-10.62-3.58-10.62-11.37c0-6.62,4.38-11.69,10.41-11.69c5.55,0,8.75,4.11,8.91,8.12H566.78z
		 M577.08,184.83c0.05-0.32,0.1-0.59,0.1-1.07c0-3.52-2.51-4.8-4.64-4.8c-4.75,0-5.45,4.49-5.66,5.87H577.08z"/>
	<path class="st0" d="M592.83,177.78c0.43,1.23,0.64,3.31,0.69,4.43c2.72-2.99,5.12-4.43,8.22-4.43c4.91,0,6.67,3.42,6.67,6.99v7.9
		c0,5.82,0,6.14,3.52,6.14v1.17h-10.94v-1.17c3.68,0,3.68-0.32,3.68-6.14v-6.89c0-4.85-1.71-6.41-4.32-6.41
		c-3.04,0-5.02,2.56-6.83,4.59v8.7c0,5.77,0,6.14,3.52,6.14v1.17h-10.78v-1.17c3.52,0,3.52-0.32,3.52-6.14v-6.35
		c0-5.82,0-6.14-3.52-6.14v-1.17c2.19-0.32,4.96-0.85,5.87-1.23H592.83z"/>
	<path class="st0" d="M635.79,194.76c-1.12,3.79-4.11,6.08-8.86,6.08c-6.14,0-10.83-4.59-10.83-11.31c0-6.67,4.91-11.74,11.31-11.74
		c4.48,0,7.42,1.98,7.42,4.16c0,1.07-0.69,1.81-1.66,1.81c-1.39,0-1.81-0.91-2.14-2.3c-0.37-1.55-1.07-2.4-3.58-2.4
		c-4.65,0-7.05,3.26-7.05,9.55c0,4.16,1.01,10.83,7.63,10.83c5.02,0,6.25-3.63,6.56-4.7H635.79z"/>
	<path class="st0" d="M657.35,183.28c0.38-0.85,0.75-1.65,0.75-2.08c0-1.12-1.92-1.39-2.88-1.39v-1.17h7.47v1.17
		c-2.67,0.16-3.2,1.49-4.54,4.7l-9.5,22.95c-1.39,3.31-2.67,5.66-4.75,5.66c-0.85,0-1.65-0.53-1.65-1.55c0-1.76,1.76-2.56,2.72-2.99
		c1.81-0.8,2.4-1.12,3.15-2.99l2.03-5.07l-8.01-17.19c-1.23-2.61-1.66-3.47-4.16-3.52v-1.17h9.82v1.17
		c-1.33,0.1-2.61,0.16-2.61,1.07c0,0.43,0.64,1.76,1.01,2.61l5.87,12.49L657.35,183.28z"/>
	<polygon class="st0" points="289.96,23.23 270.77,70.73 251.51,23.23 220.85,23.23 255.47,108.6 234.95,159.39 265.61,159.39 
		320.62,23.23 	"/>
	<path class="st0" d="M371.52,23.23c-29.89,0-54.11,24.23-54.11,54.11s24.23,54.11,54.11,54.11c29.88,0,54.11-24.23,54.11-54.11
		S401.41,23.23,371.52,23.23z M371.52,100.79c-12.95,0-23.45-10.5-23.45-23.45c0-12.95,10.5-23.45,23.45-23.45
		c12.95,0,23.45,10.5,23.45,23.45C394.97,90.29,384.47,100.79,371.52,100.79z"/>
	<path class="st0" d="M542.92,77.34c0-29.88-24.23-54.11-54.11-54.11c-8.41,0-16.35,1.98-23.45,5.4v-5.4H434.7v54.11v0v0.01v54.11
		h30.66v-5.4v0V77.34c0-12.95,10.5-23.45,23.45-23.45c12.95,0,23.45,10.5,23.45,23.45v48.71l0,0v5.4h30.66V77.34L542.92,77.34
		L542.92,77.34z"/>
	<path class="st0" d="M183.52,97.18c-3.61,2.27-7.85,3.62-12.43,3.62c-7.96,0-14.99-3.98-19.23-10.05h25.22h13.23h33.14
		c1.1-4.29,1.74-8.77,1.74-13.4c0-29.88-24.23-54.11-54.11-54.11c-29.89,0-54.11,24.23-54.11,54.11s24.23,54.11,54.11,54.11
		c13.06,0,25.03-4.63,34.38-12.33L183.52,97.18z M171.1,53.89c8.51,0,15.94,4.55,20.05,11.34h-40.11
		C155.15,58.45,162.58,53.89,171.1,53.89z"/>
	<path class="st0" d="M629.25,0v28.63c-7.1-3.43-15.04-5.4-23.45-5.4c-29.88,0-54.11,24.23-54.11,54.11
		c0,29.88,24.23,54.11,54.11,54.11c8.41,0,16.35-1.98,23.45-5.4v5.4h30.85V76.98V0H629.25z M605.8,100.79
		c-12.95,0-23.45-10.5-23.45-23.45c0-12.95,10.5-23.45,23.45-23.45c12.95,0,23.45,10.5,23.45,23.45
		C629.25,90.29,618.75,100.79,605.8,100.79z"/>
	<path class="st0" d="M0,0v76.98v54.48h30.85v-5.4c7.1,3.43,15.04,5.4,23.45,5.4c29.88,0,54.11-24.23,54.11-54.11
		c0-29.88-24.23-54.11-54.11-54.11c-8.41,0-16.35,1.98-23.45,5.4V0H0z M30.85,77.34c0-12.95,10.5-23.45,23.45-23.45
		c12.95,0,23.45,10.5,23.45,23.45c0,12.95-10.5,23.45-23.45,23.45C41.35,100.79,30.85,90.29,30.85,77.34z"/>
</g>
</svg>
